<svg xmlns="http://www.w3.org/2000/svg" viewBox="0 0 168.028 110.886">
  <defs>
    <style>
      .cls-1 {
        fill:rgb(253, 249, 249);
      }
    </style>
  </defs>
  <g id="Layer_2" data-name="Layer 2">
    <g id="Layer_1-2" data-name="Layer 1">
      <g>
        <polygon class="cls-1" points="114.867 110.886 111.019 108.488 21.432 109.651 21.432 105.356 111.019 106.5 114.877 104.133 125.748 107.503 114.867 110.886"/>
        <polygon class="cls-1" points="150.928 75.126 146.66 73.568 21.013 101.461 20.128 97.266 146.258 71.634 149.533 68.497 160.869 69.55 150.928 75.126"/>
        <polygon class="cls-1" points="18.915 93.545 154.96 31.693 159.455 32.317 168.028 24.788 156.701 26.143 154.156 29.882 17.164 89.623 19.955 90.745 18.915 93.545"/>
        <polygon class="cls-1" points="123.158 9.344 118.625 9.672 15.222 86.244 12.686 82.76 117.458 8.072 119.181 3.885 129.961 0.21 123.158 9.344"/>
        <polygon class="cls-1" points="74.375 10.337 69.996 11.596 10.068 79.865 6.876 76.988 68.538 10.278 69.34 5.814 79.126 0 74.375 10.337"/>
        <polygon class="cls-1" points="41.788 11.227 37.785 13.347 3.717 74.694 0 72.537 36.079 12.362 35.942 7.844 44.314 0.096 41.788 11.227"/>
      </g>
    </g>
  </g>
</svg>
